<?xml version="1.0" encoding="UTF-8" standalone="no"?>
<!DOCTYPE svg PUBLIC "-//W3C//DTD SVG 1.1//EN" "http://www.w3.org/Graphics/SVG/1.1/DTD/svg11.dtd">
<svg width="100%" height="100%" viewBox="0 0 4000 4000" version="1.1" xmlns="http://www.w3.org/2000/svg" xmlns:xlink="http://www.w3.org/1999/xlink" xml:space="preserve" xmlns:serif="http://www.serif.com/" style="fill-rule:evenodd;clip-rule:evenodd;stroke-linecap:round;stroke-linejoin:round;stroke-miterlimit:1.5;color:#0094ff">
    <g transform="matrix(8.92505,0,0,8.92505,-13370.7,-12762.2)">
        <path d="M1865.44,1591.81C1865.44,1591.81 1902.61,1731.38 1902.47,1730.84M1579.75,1591.89C1579.75,1591.89 1542.77,1731.29 1542.76,1730.84M1837.66,1750.52C1837.66,1750.52 1809.9,1699.62 1721.45,1700.83C1633.82,1702.04 1606.32,1753.4 1606.32,1753.4M1797.41,1535.44L1649.15,1535.42M1606.32,1753.4C1600.85,1764.79 1589.2,1772.65 1575.74,1772.65C1557.01,1772.65 1541.81,1757.45 1541.81,1738.73C1541.81,1735.16 1542.37,1731.72 1543.39,1728.49L1542.76,1730.84C1542.76,1730.88 1543.04,1729.88 1543.54,1728.03C1548.86,1708.33 1579.75,1591.89 1579.75,1591.89C1587.13,1559.54 1615.99,1535.39 1650.41,1535.39C1651.19,1535.39 1651.97,1535.4 1652.75,1535.43L1792.1,1535.44C1792.99,1535.4 1793.89,1535.39 1794.79,1535.39C1829.19,1535.39 1858.03,1559.51 1865.44,1591.81L1902.47,1730.84C1903.07,1733.37 1903.39,1736.01 1903.39,1738.73C1903.39,1757.45 1888.19,1772.65 1869.47,1772.65C1854.89,1772.65 1842.45,1763.44 1837.66,1750.52C1837.66,1750.52 1809.9,1699.62 1721.45,1700.83C1642.28,1701.92 1612.19,1740.84 1607.12,1751.62C1606.58,1752.77 1606.32,1753.4 1606.32,1753.4ZM1606.32,1753.4C1600.85,1764.79 1589.2,1772.65 1575.74,1772.65C1557.01,1772.65 1541.81,1757.45 1541.81,1738.73C1541.81,1735.16 1542.37,1731.72 1543.39,1728.49L1542.76,1730.84C1542.76,1730.88 1543.04,1729.88 1543.54,1728.03C1548.86,1708.33 1579.75,1591.89 1579.75,1591.89C1587.13,1559.54 1615.99,1535.39 1650.41,1535.39C1651.19,1535.39 1651.97,1535.4 1652.75,1535.43L1792.1,1535.44C1792.99,1535.4 1793.89,1535.39 1794.79,1535.39C1829.19,1535.39 1858.03,1559.51 1865.44,1591.81L1902.47,1730.84C1903.07,1733.37 1903.39,1736.01 1903.39,1738.73C1903.39,1757.45 1888.19,1772.65 1869.47,1772.65C1854.89,1772.65 1842.45,1763.44 1837.66,1750.52C1837.66,1750.52 1809.9,1699.62 1721.45,1700.83C1642.28,1701.92 1612.19,1740.84 1607.12,1751.62C1606.58,1752.77 1606.32,1753.4 1606.32,1753.4ZM1606.32,1753.4C1600.85,1764.79 1589.2,1772.65 1575.74,1772.65C1557.01,1772.65 1541.81,1757.45 1541.81,1738.73C1541.81,1735.16 1542.37,1731.72 1543.39,1728.49L1542.76,1730.84C1542.76,1730.88 1543.04,1729.88 1543.54,1728.03C1548.86,1708.33 1579.75,1591.89 1579.75,1591.89C1587.13,1559.54 1615.99,1535.39 1650.41,1535.39C1651.19,1535.39 1651.97,1535.4 1652.75,1535.43L1792.1,1535.44C1792.99,1535.4 1793.89,1535.39 1794.79,1535.39C1829.19,1535.39 1858.03,1559.51 1865.44,1591.81L1902.47,1730.84C1903.07,1733.37 1903.39,1736.01 1903.39,1738.73C1903.39,1757.45 1888.19,1772.65 1869.47,1772.65C1854.89,1772.65 1842.45,1763.44 1837.66,1750.52C1837.66,1750.52 1809.9,1699.62 1721.45,1700.83C1642.28,1701.92 1612.19,1740.84 1607.12,1751.62C1606.58,1752.77 1606.32,1753.4 1606.32,1753.4ZM1606.32,1753.4C1600.85,1764.79 1589.2,1772.65 1575.74,1772.65C1557.01,1772.65 1541.81,1757.45 1541.81,1738.73C1541.81,1735.16 1542.37,1731.72 1543.39,1728.49L1542.76,1730.84C1542.76,1730.88 1543.04,1729.88 1543.54,1728.03C1548.86,1708.33 1579.75,1591.89 1579.75,1591.89C1587.13,1559.54 1615.99,1535.39 1650.41,1535.39C1651.19,1535.39 1651.97,1535.4 1652.75,1535.43L1792.1,1535.44C1792.99,1535.4 1793.89,1535.39 1794.79,1535.39C1829.19,1535.39 1858.03,1559.51 1865.44,1591.81L1902.47,1730.84C1903.07,1733.37 1903.39,1736.01 1903.39,1738.73C1903.39,1757.45 1888.19,1772.65 1869.47,1772.65C1854.89,1772.65 1842.45,1763.44 1837.66,1750.52C1837.66,1750.52 1809.9,1699.62 1721.45,1700.83C1642.28,1701.92 1612.19,1740.84 1607.12,1751.62C1606.58,1752.77 1606.32,1753.4 1606.32,1753.4Z" style="fill:none;stroke:currentColor;stroke-width:15.67px;"/>
    </g>
    <path d="M1211.37,2137.72L1085.82,2137.94C1047.22,2138 1015.83,2106.72 1015.77,2068.12C1015.7,2029.52 1046.99,1998.13 1085.58,1998.07L1211.37,1997.86L1211.37,1870.14C1211.37,1831.54 1242.7,1800.2 1281.3,1800.2C1319.9,1800.2 1351.24,1831.54 1351.24,1870.14L1351.24,1997.62L1476.79,1997.41C1515.38,1997.34 1546.77,2028.63 1546.84,2067.22C1546.9,2105.82 1515.62,2137.21 1477.02,2137.28L1351.24,2137.49L1351.24,2265.21C1351.24,2303.8 1319.9,2335.14 1281.3,2335.14C1242.7,2335.14 1211.37,2303.8 1211.37,2265.21L1211.37,2137.72Z" style="fill:currentColor;stroke:none;"/>
    <g transform="matrix(8.92505,0,0,8.92505,-13395.9,-12937.3)">
        <path d="M1648.22,1585.97C1664.06,1585.97 1676.91,1598.83 1676.91,1614.67C1676.91,1630.51 1664.06,1643.37 1648.22,1643.37C1632.38,1643.37 1619.52,1630.51 1619.52,1614.67C1619.52,1606.15 1623.23,1598.5 1629.13,1593.24C1634.21,1588.72 1640.89,1585.97 1648.22,1585.97Z" style="fill:currentColor;"/>
    </g>
    <g transform="matrix(8.92505,0,0,8.92505,-11987.3,-12343.3)">
        <circle cx="1648.22" cy="1614.67" r="28.699" style="fill:currentColor;"/>
    </g>
    <g transform="matrix(8.92505,0,0,8.92505,-9877.29,-12406.3)">
        <path d="M1409.22,1525.2L1411.61,1525.44L1413.86,1526.14L1415.88,1527.24L1417.64,1528.69L1419.08,1530.44L1420.18,1532.46L1420.88,1534.71L1421.12,1537.1L1420.88,1539.49L1420.18,1541.73L1419.08,1543.76L1417.64,1545.51L1415.88,1546.96L1413.86,1548.06L1411.61,1548.75L1409.22,1549L1406.83,1548.75L1404.59,1548.06L1402.57,1546.96L1400.81,1545.51L1399.36,1543.76L1398.27,1541.73L1397.57,1539.49L1397.33,1537.1L1397.57,1534.71L1398.27,1532.46L1399.36,1530.44L1400.81,1528.69L1402.57,1527.24L1404.59,1526.14L1406.83,1525.44L1409.22,1525.2Z" style="fill:currentColor;"/>
    </g>
    <g transform="matrix(5.46502e-16,8.92505,-8.92505,5.46502e-16,16580.1,-11103.7)">
        <path d="M1409.22,1525.2L1411.61,1525.44L1413.86,1526.14L1415.88,1527.24L1417.64,1528.69L1419.08,1530.44L1420.18,1532.46L1420.88,1534.71L1421.12,1537.1L1420.88,1539.49L1420.18,1541.73L1419.08,1543.76L1417.64,1545.51L1415.88,1546.96L1413.86,1548.06L1411.61,1548.75L1409.22,1549L1406.83,1548.75L1404.59,1548.06L1402.57,1546.96L1400.81,1545.51L1399.36,1543.76L1398.27,1541.73L1397.57,1539.49L1397.33,1537.1L1397.57,1534.71L1398.27,1532.46L1399.36,1530.44L1400.81,1528.69L1402.57,1527.24L1404.59,1526.14L1406.83,1525.44L1409.22,1525.2Z" style="fill:currentColor;"/>
    </g>
    <g transform="matrix(5.46502e-16,8.92505,-8.92505,5.46502e-16,15905.6,-10509.7)">
        <path d="M1409.22,1525.2L1411.61,1525.44L1413.86,1526.14L1415.88,1527.24L1417.64,1528.69L1419.08,1530.44L1420.18,1532.46L1420.88,1534.71L1421.12,1537.1L1420.88,1539.49L1420.18,1541.73L1419.08,1543.76L1417.64,1545.51L1415.88,1546.96L1413.86,1548.06L1411.61,1548.75L1409.22,1549L1406.83,1548.75L1404.59,1548.06L1402.57,1546.96L1400.81,1545.51L1399.36,1543.76L1398.27,1541.73L1397.57,1539.49L1397.33,1537.1L1397.57,1534.71L1398.27,1532.46L1399.36,1530.44L1400.81,1528.69L1402.57,1527.24L1404.59,1526.14L1406.83,1525.44L1409.22,1525.2Z" style="fill:currentColor;"/>
    </g>
    <g transform="matrix(8.92505,0,0,8.92505,-9877.29,-12083.6)">
        <path d="M1409.22,1525.2L1411.61,1525.44L1413.86,1526.14L1415.88,1527.24L1417.64,1528.69L1419.08,1530.44L1420.18,1532.46L1420.88,1534.71L1421.12,1537.1L1420.88,1539.49L1420.18,1541.73L1419.08,1543.76L1417.64,1545.51L1415.88,1546.96L1413.86,1548.06L1411.61,1548.75L1409.22,1549L1406.83,1548.75L1404.59,1548.06L1402.57,1546.96L1400.81,1545.51L1399.36,1543.76L1398.27,1541.73L1397.57,1539.49L1397.33,1537.1L1397.57,1534.71L1398.27,1532.46L1399.36,1530.44L1400.81,1528.69L1402.57,1527.24L1404.59,1526.14L1406.83,1525.44L1409.22,1525.2Z" style="fill:currentColor;"/>
    </g>
    <g transform="matrix(5.46502e-16,8.92505,-8.92505,5.46502e-16,16257.4,-11103.7)">
        <path d="M1409.22,1525.2L1411.61,1525.44L1413.86,1526.14L1415.88,1527.24L1417.64,1528.69L1419.08,1530.44L1420.18,1532.46L1420.88,1534.71L1421.12,1537.1L1420.88,1539.49L1420.18,1541.73L1419.08,1543.76L1417.64,1545.51L1415.88,1546.96L1413.86,1548.06L1411.61,1548.75L1409.22,1549L1406.83,1548.75L1404.59,1548.06L1402.57,1546.96L1400.81,1545.51L1399.36,1543.76L1398.27,1541.73L1397.57,1539.49L1397.33,1537.1L1397.57,1534.71L1398.27,1532.46L1399.36,1530.44L1400.81,1528.69L1402.57,1527.24L1404.59,1526.14L1406.83,1525.44L1409.22,1525.2Z" style="fill:currentColor;"/>
    </g>
    <g transform="matrix(5.46502e-16,8.92505,-8.92505,5.46502e-16,15582.9,-10509.7)">
        <path d="M1409.22,1525.2L1411.61,1525.44L1413.86,1526.14L1415.88,1527.24L1417.64,1528.69L1419.08,1530.44L1420.18,1532.46L1420.88,1534.71L1421.12,1537.1L1420.88,1539.49L1420.18,1541.73L1419.08,1543.76L1417.64,1545.51L1415.88,1546.96L1413.86,1548.06L1411.61,1548.75L1409.22,1549L1406.83,1548.75L1404.59,1548.06L1402.57,1546.96L1400.81,1545.51L1399.36,1543.76L1398.27,1541.73L1397.57,1539.49L1397.33,1537.1L1397.57,1534.71L1398.27,1532.46L1399.36,1530.44L1400.81,1528.69L1402.57,1527.24L1404.59,1526.14L1406.83,1525.44L1409.22,1525.2Z" style="fill:currentColor;"/>
    </g>
</svg>
