<?xml version="1.0" encoding="UTF-8" standalone="no"?>
<!DOCTYPE svg PUBLIC "-//W3C//DTD SVG 1.1//EN" "http://www.w3.org/Graphics/SVG/1.1/DTD/svg11.dtd">
<svg width="100%" height="100%" viewBox="0 0 4000 4000" version="1.1" xmlns="http://www.w3.org/2000/svg" xmlns:xlink="http://www.w3.org/1999/xlink" xml:space="preserve" xmlns:serif="http://www.serif.com/" style="fill-rule:evenodd;clip-rule:evenodd;stroke-linecap:round;stroke-linejoin:round;stroke-miterlimit:1.5;color:#0094ff;">
    <g transform="matrix(8.92505,0,0,8.92505,-13370.7,-12762.2)">
        <path d="M1721.45,1700.83C1633.82,1702.04 1606.32,1753.4 1606.32,1753.4C1606.32,1753.4 1606.58,1752.77 1607.12,1751.62C1612.19,1740.84 1642.28,1701.92 1721.45,1700.83ZM1797.41,1535.44L1792.1,1535.44M1652.75,1535.43L1649.15,1535.42M1902.47,1730.84C1902.47,1730.84 1902.47,1730.84 1902.47,1730.84ZM1797.41,1535.44L1792.1,1535.44M1652.75,1535.43L1649.15,1535.42M1606.32,1753.4C1600.85,1764.79 1589.2,1772.65 1575.74,1772.65C1557.01,1772.65 1541.81,1757.45 1541.81,1738.73C1541.81,1735.16 1542.37,1731.72 1543.39,1728.49L1542.76,1730.84C1542.76,1730.88 1543.04,1729.88 1543.54,1728.03C1548.86,1708.33 1579.75,1591.89 1579.75,1591.89C1587.13,1559.54 1615.99,1535.39 1650.41,1535.39C1651.19,1535.39 1651.97,1535.4 1652.75,1535.43L1792.1,1535.44C1792.99,1535.4 1793.89,1535.39 1794.79,1535.39C1829.19,1535.39 1858.03,1559.51 1865.44,1591.81L1902.47,1730.84C1903.07,1733.37 1903.39,1736.01 1903.39,1738.73C1903.39,1757.45 1888.19,1772.65 1869.47,1772.65C1854.89,1772.65 1842.45,1763.44 1837.66,1750.52C1837.66,1750.52 1809.9,1699.62 1721.45,1700.83C1642.28,1701.92 1612.19,1740.84 1607.12,1751.62C1606.58,1752.77 1606.32,1753.4 1606.32,1753.4Z" style="fill:none;stroke:currentColor;stroke-width:15.67px;"/>
    </g>
    <path d="M965.849,2887.03C916.967,2988.6 813.048,3058.78 692.869,3058.78C525.771,3058.78 390.108,2923.11 390.108,2756.02C390.108,2724.17 395.035,2693.47 404.166,2664.64L398.583,2685.61C398.587,2685.96 401.034,2677.06 405.504,2660.51C452.981,2484.74 728.663,1445.46 728.663,1445.46C794.576,1156.81 1052.1,941.223 1359.37,941.223C1366.35,941.223 1373.3,941.335 1380.22,941.555L2623.92,941.664C2631.89,941.371 2639.91,941.223 2647.95,941.223C2954.98,941.223 3212.35,1156.48 3278.51,1444.81L3608.97,2685.61C3614.36,2708.2 3617.21,2731.78 3617.21,2756.02C3617.21,2923.11 3481.55,3058.78 3314.45,3058.78C3184.37,3058.78 3073.34,2976.57 3030.53,2861.31C3030.53,2861.31 2782.8,2406.95 1993.4,2417.81C1286.73,2427.53 1018.19,2774.9 972.962,2871.08C968.133,2881.35 965.849,2887.03 965.849,2887.03ZM2967.65,1473.69L2965.49,1452.36L2959.27,1432.33L2949.46,1414.28L2936.54,1398.62L2920.89,1385.7L2902.83,1375.89L2882.8,1369.67L2861.47,1367.51L2840.13,1369.67L2820.1,1375.89L2802.05,1385.7L2786.39,1398.62L2773.47,1414.28L2763.66,1432.33L2757.44,1452.36L2755.28,1473.69L2757.44,1495.03L2763.66,1515.06L2773.47,1533.12L2786.39,1548.77L2802.05,1561.69L2820.1,1571.5L2840.13,1577.72L2861.47,1579.88L2882.8,1577.72L2902.83,1571.5L2920.89,1561.69L2936.54,1548.77L2949.46,1533.12L2959.27,1515.06L2965.49,1495.03L2967.65,1473.69ZM1970.38,2067.67L1968.22,2046.34L1962,2026.31L1952.2,2008.25L1939.28,1992.6L1923.62,1979.67L1905.56,1969.87L1885.54,1963.65L1864.2,1961.49L1842.86,1963.65L1822.84,1969.87L1804.78,1979.67L1789.12,1992.6L1776.2,2008.25L1766.4,2026.31L1760.18,2046.34L1758.02,2067.67L1760.18,2089.01L1766.4,2109.04L1776.2,2127.09L1789.12,2142.75L1804.78,2155.67L1822.84,2165.47L1842.86,2171.7L1864.2,2173.86L1885.54,2171.7L1905.56,2165.47L1923.62,2155.67L1939.28,2142.75L1952.2,2127.09L1962,2109.04L1968.22,2089.01L1970.38,2067.67ZM2723.09,1811.53C2581.73,1811.53 2466.95,1926.3 2466.95,2067.67C2466.95,2209.04 2581.73,2323.81 2723.09,2323.81C2864.46,2323.81 2979.24,2209.04 2979.24,2067.67C2979.24,1926.3 2864.46,1811.53 2723.09,1811.53ZM2644.94,1473.69L2642.78,1452.36L2636.56,1432.33L2626.76,1414.28L2613.84,1398.62L2598.18,1385.7L2580.12,1375.89L2560.09,1369.67L2538.76,1367.51L2517.42,1369.67L2497.39,1375.89L2479.34,1385.7L2463.68,1398.62L2450.76,1414.28L2440.96,1432.33L2434.74,1452.36L2432.58,1473.69L2434.74,1495.03L2440.96,1515.06L2450.76,1533.12L2463.68,1548.77L2479.34,1561.69L2497.39,1571.5L2517.42,1577.72L2538.76,1579.88L2560.09,1577.72L2580.12,1571.5L2598.18,1561.69L2613.84,1548.77L2626.76,1533.12L2636.56,1515.06L2642.78,1495.03L2644.94,1473.69ZM2700.11,1528.87L2678.78,1531.03L2658.75,1537.25L2640.69,1547.05L2625.03,1559.97L2612.12,1575.63L2602.31,1593.68L2596.09,1613.71L2593.93,1635.05L2596.09,1656.38L2602.31,1676.41L2612.12,1694.47L2625.03,1710.13L2640.69,1723.05L2658.75,1732.85L2678.78,1739.07L2700.11,1741.23L2721.45,1739.07L2741.47,1732.85L2759.53,1723.05L2775.19,1710.13L2788.11,1694.47L2797.91,1676.41L2804.13,1656.38L2806.29,1635.05L2804.13,1613.71L2797.91,1593.68L2788.11,1575.63L2775.19,1559.97L2759.53,1547.05L2741.47,1537.25L2721.45,1531.03L2700.11,1528.87ZM1314.51,1217.55C1249.14,1217.55 1189.46,1242.09 1144.18,1282.45C1091.54,1329.37 1058.36,1397.69 1058.36,1473.69C1058.36,1615.06 1173.14,1729.84 1314.51,1729.84C1455.87,1729.84 1570.64,1615.06 1570.64,1473.69C1570.64,1332.33 1455.87,1217.55 1314.51,1217.55ZM1211.37,2137.72L1211.37,2265.21C1211.37,2303.8 1242.7,2335.14 1281.3,2335.14C1319.9,2335.14 1351.24,2303.8 1351.24,2265.21L1351.24,2137.49L1477.02,2137.28C1515.62,2137.21 1546.9,2105.82 1546.84,2067.22C1546.77,2028.63 1515.38,1997.34 1476.79,1997.41L1351.24,1997.62L1351.24,1870.14C1351.24,1831.54 1319.9,1800.2 1281.3,1800.2C1242.7,1800.2 1211.37,1831.54 1211.37,1870.14L1211.37,1997.86L1085.58,1998.07C1046.99,1998.13 1015.7,2029.52 1015.77,2068.12C1015.83,2106.72 1047.22,2138 1085.82,2137.94L1211.37,2137.72ZM2700.11,1206.16L2678.78,1208.32L2658.75,1214.54L2640.69,1224.34L2625.03,1237.26L2612.12,1252.92L2602.31,1270.98L2596.09,1291.01L2593.93,1312.34L2596.09,1333.68L2602.31,1353.7L2612.12,1371.76L2625.03,1387.42L2640.69,1400.34L2658.75,1410.14L2678.78,1416.36L2700.11,1418.52L2721.45,1416.36L2741.47,1410.14L2759.53,1400.34L2775.19,1387.42L2788.11,1371.76L2797.91,1353.7L2804.13,1333.68L2806.29,1312.34L2804.13,1291.01L2797.91,1270.98L2788.11,1252.92L2775.19,1237.26L2759.53,1224.34L2741.47,1214.54L2721.45,1208.32L2700.11,1206.16ZM2293.09,2067.67L2290.93,2046.34L2284.71,2026.31L2274.9,2008.25L2261.99,1992.6L2246.33,1979.67L2228.27,1969.87L2208.24,1963.65L2186.91,1961.49L2165.57,1963.65L2145.54,1969.87L2127.49,1979.67L2111.83,1992.6L2098.91,2008.25L2089.11,2026.31L2082.88,2046.34L2080.72,2067.67L2082.88,2089.01L2089.11,2109.04L2098.91,2127.09L2111.83,2142.75L2127.49,2155.67L2145.54,2165.47L2165.57,2171.7L2186.91,2173.86L2208.24,2171.7L2228.27,2165.47L2246.33,2155.67L2261.99,2142.75L2274.9,2127.09L2284.71,2109.04L2290.93,2089.01L2293.09,2067.67Z" style="fill:currentColor;"/>
</svg>
