<?xml version="1.0" encoding="UTF-8" standalone="no"?>
<!DOCTYPE svg PUBLIC "-//W3C//DTD SVG 1.1//EN" "http://www.w3.org/Graphics/SVG/1.1/DTD/svg11.dtd">
<svg width="100%" height="100%" viewBox="0 0 4000 4000" version="1.1" xmlns="http://www.w3.org/2000/svg" xmlns:xlink="http://www.w3.org/1999/xlink" xml:space="preserve" xmlns:serif="http://www.serif.com/" style="fill-rule:evenodd;clip-rule:evenodd;stroke-linecap:round;stroke-linejoin:round;stroke-miterlimit:1.5;color:#0094ff">
    <g>
        <g transform="matrix(0.997544,0,0,1.05,2773.01,-195.216)">
            <path d="M644.455,3635.13C640.042,3635.42 635.589,3635.57 631.103,3635.57C626.617,3635.57 622.164,3635.42 617.751,3635.13L644.455,3635.13ZM644.455,3635.13C640.042,3635.42 635.589,3635.57 631.103,3635.57C626.617,3635.57 622.164,3635.42 617.751,3635.13L644.455,3635.13Z" style="fill:none;stroke:currentColor;stroke-width:82.26px;"/>
        </g>
        <g transform="matrix(0.328325,0,0,0.332983,3330.3,2199.7)">
            <path d="M830.773,3411.53C831.639,3419.1 832.084,3426.79 832.084,3434.59C832.084,3442.39 831.639,3450.08 830.773,3457.65L830.773,3411.53ZM430.686,3449.74C430.312,3444.74 430.122,3439.69 430.122,3434.59C430.122,3429.49 430.312,3424.44 430.686,3419.43L430.686,3449.74ZM653.6,3634.32C646.214,3635.14 638.708,3635.57 631.103,3635.57C623.498,3635.57 615.992,3635.14 608.606,3634.32L653.6,3634.32Z" style="fill:none;stroke:currentColor;stroke-width:254.77px;"/>
        </g>
        <path d="M3415.88,3621.68L650.699,3621.68C594.404,3621.68 540.415,3599.31 500.609,3559.51C460.802,3519.7 438.439,3465.71 438.439,3409.41L438.439,806.485C438.439,750.19 460.802,696.201 500.609,656.394C520.262,636.74 543.373,621.339 568.512,610.782C594.29,599.956 622.199,594.224 650.699,594.224L3259.45,594.224C3315.74,594.224 3369.73,616.587 3409.54,656.394C3449.34,696.201 3471.7,750.19 3471.7,806.485L3471.7,3338.31C3471.58,3339.98 3471.52,3341.66 3471.52,3343.36C3471.52,3345.05 3471.58,3346.74 3471.7,3348.4C3474.07,3380.5 3498.8,3406.32 3530.12,3409.86C3532.55,3410.14 3535.01,3410.28 3537.51,3410.28C3540,3410.28 3542.47,3410.14 3544.89,3409.86C3569.5,3407.08 3590.04,3390.55 3598.86,3368.02C3600.96,3362.66 3602.39,3356.97 3603.06,3351.03L3603.06,3409.86L3603.05,3409.86C3603.05,3410.28 3603.05,3410.69 3603.05,3411.1C3603.05,3502 3548.33,3579.56 3471.7,3609.23C3454.12,3616.04 3435.38,3620.33 3415.88,3621.68Z" style="fill:none;stroke:currentColor;stroke-width:84.24px;"/>
        <path d="M568.512,610.782L568.512,603.705C568.512,486.477 663.544,391.445 780.773,391.445L3390.8,391.445C3508.03,391.445 3603.06,486.477 3603.06,603.705L3603.06,3351.03C3602.39,3356.97 3600.96,3362.66 3598.86,3368.02C3590.04,3390.55 3569.5,3407.08 3544.89,3409.86L3530.12,3409.86C3498.8,3406.32 3474.07,3380.5 3471.7,3348.4L3471.7,806.485C3471.7,750.19 3449.34,696.201 3409.54,656.394C3369.73,616.587 3315.74,594.224 3259.45,594.224L650.699,594.224C622.199,594.224 594.29,599.956 568.512,610.782Z" style="fill:none;stroke:currentColor;stroke-width:84.24px;"/>
    </g>
    <g transform="matrix(1,0,0,1,78.321,50.1916)">
        <path d="M1857.24,842.031C1877.87,842.031 1897.66,850.227 1912.25,864.815C1926.84,879.404 1935.03,899.19 1935.03,919.821L1935.03,2052.85C1935.03,2073.48 1926.84,2093.27 1912.25,2107.86C1897.66,2122.45 1877.87,2130.64 1857.24,2130.64L724.21,2130.64C703.579,2130.64 683.793,2122.45 669.204,2107.86C654.615,2093.27 646.42,2073.48 646.42,2052.85L646.42,919.821C646.42,899.19 654.615,879.404 669.204,864.815C683.793,850.227 703.579,842.031 724.21,842.031L1857.24,842.031Z" style="fill:rgb(27,27,26);stroke:currentColor;stroke-width:84.24px;"/>
    </g>
    <g transform="matrix(0.940644,0,0,1,104.258,63.8921)">
        <path d="M750.033,2529.01L3238.72,2529.01" style="fill:none;stroke:currentColor;stroke-width:211.86px;"/>
    </g>
    <g transform="matrix(0.94439,0,0,1,105.989,403.459)">
        <path d="M741.333,2862.76L3227.93,2862.76" style="fill:none;stroke:currentColor;stroke-width:211.46px;"/>
    </g>
    <g transform="matrix(0.867994,0,0,1,363.915,57.6983)">
        <path d="M2248.95,1153.29L3187.91,1153.29" style="fill:none;stroke:currentColor;stroke-width:219.66px;"/>
    </g>
    <g transform="matrix(0.871579,0,0,1,346.588,146.947)">
        <path d="M2260.78,1761.62L3193.47,1761.62" style="fill:none;stroke:currentColor;stroke-width:219.27px;"/>
    </g>
</svg>
