<?xml version="1.0" encoding="UTF-8" standalone="no"?>
<!DOCTYPE svg PUBLIC "-//W3C//DTD SVG 1.1//EN" "http://www.w3.org/Graphics/SVG/1.1/DTD/svg11.dtd">
<svg width="100%" height="100%" viewBox="0 0 4000 4000" version="1.1" xmlns="http://www.w3.org/2000/svg" xmlns:xlink="http://www.w3.org/1999/xlink" xml:space="preserve" xmlns:serif="http://www.serif.com/" style="fill-rule:evenodd;clip-rule:evenodd;stroke-linecap:round;stroke-linejoin:round;stroke-miterlimit:1.5;color:#0094ff">
    <g transform="matrix(0.997544,0,0,1.05,2773.01,-195.216)">
        <path d="M644.455,3635.13C640.042,3635.42 635.589,3635.57 631.103,3635.57C626.617,3635.57 622.164,3635.42 617.751,3635.13L644.455,3635.13ZM644.455,3635.13C640.042,3635.42 635.589,3635.57 631.103,3635.57C626.617,3635.57 622.164,3635.42 617.751,3635.13L644.455,3635.13Z" style="fill:currentColor;stroke:rgb(27,27,26);stroke-width:82.26px;"/>
    </g>
    <g transform="matrix(0.328325,0,0,0.332983,3330.3,2199.7)">
        <path d="M830.773,3411.53C831.639,3419.1 832.084,3426.79 832.084,3434.59C832.084,3442.39 831.639,3450.08 830.773,3457.65L830.773,3411.53ZM430.686,3449.74C430.312,3444.74 430.122,3439.69 430.122,3434.59C430.122,3429.49 430.312,3424.44 430.686,3419.43L430.686,3449.74ZM653.6,3634.32C646.214,3635.14 638.708,3635.57 631.103,3635.57C623.498,3635.57 615.992,3635.14 608.606,3634.32L653.6,3634.32Z" style="fill:currentColor;stroke:rgb(27,27,26);stroke-width:254.77px;"/>
    </g>
    <path d="M3415.88,3621.68L650.699,3621.68C594.404,3621.68 540.415,3599.31 500.609,3559.51C460.802,3519.7 438.439,3465.71 438.439,3409.41L438.439,806.485C438.439,750.19 460.802,696.201 500.609,656.394C520.262,636.74 543.373,621.339 568.512,610.782C594.29,599.956 622.199,594.224 650.699,594.224L3259.45,594.224C3315.74,594.224 3369.73,616.587 3409.54,656.394C3449.34,696.201 3471.7,750.19 3471.7,806.485L3471.7,3338.31C3471.58,3339.98 3471.52,3341.66 3471.52,3343.36C3471.52,3345.05 3471.58,3346.74 3471.7,3348.4C3474.07,3380.5 3498.8,3406.32 3530.12,3409.86C3532.55,3410.14 3535.01,3410.28 3537.51,3410.28C3540,3410.28 3542.47,3410.14 3544.89,3409.86C3569.5,3407.08 3590.04,3390.55 3598.86,3368.02C3600.96,3362.66 3602.39,3356.97 3603.06,3351.03L3603.06,3409.86L3603.05,3409.86C3603.05,3410.28 3603.05,3410.69 3603.05,3411.1C3603.05,3502 3548.33,3579.56 3471.7,3609.23C3454.12,3616.04 3435.38,3620.33 3415.88,3621.68ZM806.097,3369.05L3154.41,3369.05C3211.17,3369.05 3257.25,3322.97 3257.25,3266.21C3257.25,3209.46 3211.17,3163.38 3154.41,3163.38L806.097,3163.38C749.341,3163.38 703.262,3209.46 703.262,3266.21C703.262,3322.97 749.341,3369.05 806.097,3369.05ZM2315.99,1313.82L3131,1313.82C3187.75,1313.82 3233.83,1267.74 3233.83,1210.99C3233.83,1154.23 3187.75,1108.15 3131,1108.15L2315.99,1108.15C2259.24,1108.15 2213.16,1154.23 2213.16,1210.99C2213.16,1267.74 2259.24,1313.82 2315.99,1313.82ZM809.772,2695.73L3150.74,2695.73C3207.49,2695.73 3253.57,2649.65 3253.57,2592.9C3253.57,2536.14 3207.49,2490.06 3150.74,2490.06L809.772,2490.06C753.016,2490.06 706.937,2536.14 706.937,2592.9C706.937,2649.65 753.016,2695.73 809.772,2695.73ZM2317.04,2011.4L3129.95,2011.4C3186.71,2011.4 3232.79,1965.33 3232.79,1908.57C3232.79,1851.82 3186.71,1805.74 3129.95,1805.74L2317.04,1805.74C2260.28,1805.74 2214.2,1851.82 2214.2,1908.57C2214.2,1965.33 2260.28,2011.4 2317.04,2011.4ZM2502.99,1020.16L2523.16,979.82L2502.99,1020.16ZM1935.56,850.101L802.531,850.101C770.729,850.101 740.229,862.735 717.741,885.223C695.253,907.71 682.62,938.21 682.62,970.013L682.62,2103.04C682.62,2134.85 695.253,2165.35 717.741,2187.83C740.229,2210.32 770.729,2222.95 802.531,2222.95L1935.56,2222.95C1967.36,2222.95 1997.86,2210.32 2020.35,2187.83C2042.84,2165.35 2055.47,2134.85 2055.47,2103.04L2055.47,970.013C2055.47,938.211 2042.84,907.711 2020.35,885.223C1997.86,862.735 1967.36,850.101 1935.56,850.101Z" style="fill:currentColor;"/>
    <path d="M3645.17,3410.93L3645.17,3411.1C3645.17,3520.21 3578.89,3612.89 3486.91,3648.51C3465.45,3656.82 3442.58,3662.05 3418.79,3663.7C3417.82,3663.76 3416.85,3663.8 3415.88,3663.8L650.699,3663.8C583.233,3663.8 518.53,3636.99 470.825,3589.29C423.119,3541.58 396.318,3476.88 396.318,3409.41L396.318,806.485C396.318,739.019 423.119,674.316 470.825,626.61C494.378,603.056 522.076,584.598 552.203,571.946C583.096,558.973 616.543,552.103 650.699,552.103L3259.45,552.103C3326.91,552.103 3391.61,578.904 3439.32,626.61C3487.03,674.316 3513.83,739.019 3513.83,806.485L3513.83,3338.31C3513.83,3339.34 3513.79,3340.37 3513.71,3341.4C3513.66,3342.05 3513.64,3342.7 3513.64,3343.36C3513.64,3344.01 3513.66,3344.66 3513.71,3345.31C3514.58,3357.05 3523.4,3366.71 3534.86,3368.01C3535.73,3368.11 3536.61,3368.16 3537.51,3368.16C3538.4,3368.16 3539.29,3368.11 3540.16,3368.01C3549.1,3367 3556.44,3360.84 3559.64,3352.66C3560.43,3350.66 3560.96,3348.53 3561.21,3346.31C3563.71,3324.11 3583.12,3307.72 3605.43,3308.98C3627.74,3310.23 3645.18,3328.69 3645.18,3351.03L3645.18,3409.86C3645.18,3410.22 3645.18,3410.58 3645.17,3410.93ZM3556.55,3450.7C3554.26,3451.12 3551.96,3451.45 3549.63,3451.72C3545.65,3452.17 3541.61,3452.4 3537.51,3452.4C3533.41,3452.4 3529.36,3452.17 3525.38,3451.72C3474.2,3445.93 3433.56,3403.95 3429.7,3351.5C3429.5,3348.81 3429.4,3346.09 3429.4,3343.36C3429.4,3341.2 3429.46,3339.06 3429.58,3336.95L3429.58,806.485C3429.58,761.361 3411.66,718.085 3379.75,686.178C3347.84,654.271 3304.57,636.345 3259.45,636.345L650.699,636.345C627.855,636.345 605.483,640.94 584.821,649.617C564.671,658.079 546.146,670.425 530.393,686.178C498.485,718.085 480.56,761.361 480.56,806.485L480.56,3409.41C480.56,3454.54 498.485,3497.81 530.393,3529.72C562.3,3561.63 605.576,3579.55 650.699,3579.55L3414.34,3579.55L3414.35,3579.55C3429.06,3578.4 3443.2,3575.1 3456.49,3569.95C3506.29,3550.67 3544.12,3505.84 3556.55,3450.7Z" style="fill:currentColor;"/>
    <path d="M526.391,610.782L526.391,603.705C526.391,463.214 640.282,349.323 780.773,349.323L3390.8,349.323C3531.29,349.323 3645.18,463.214 3645.18,603.705L3645.18,3351.03C3645.18,3352.61 3645.1,3354.19 3644.92,3355.76C3643.83,3365.4 3641.49,3374.67 3638.08,3383.38C3623.64,3420.25 3589.91,3447.16 3549.63,3451.72C3548.06,3451.9 3546.48,3451.99 3544.89,3451.99L3530.12,3451.99C3528.54,3451.99 3526.96,3451.9 3525.38,3451.72C3474.2,3445.93 3433.56,3403.95 3429.7,3351.5C3429.62,3350.47 3429.58,3349.43 3429.58,3348.4L3429.58,806.485C3429.58,761.361 3411.66,718.085 3379.75,686.178C3347.84,654.271 3304.57,636.345 3259.45,636.345L650.699,636.345C627.855,636.345 605.483,640.94 584.821,649.617C571.817,655.078 556.943,653.668 545.197,645.861C533.45,638.054 526.391,624.886 526.391,610.782ZM617.941,554.22C628.746,552.818 639.686,552.103 650.699,552.103L3259.45,552.103C3326.91,552.103 3391.61,578.904 3439.32,626.61C3487.03,674.316 3513.83,739.019 3513.83,806.485L3513.83,3346.49C3515.1,3357.09 3522.88,3365.78 3533.1,3367.74L3541.91,3367.74C3550.05,3366.17 3556.65,3360.3 3559.64,3352.66C3560.21,3351.2 3560.65,3349.68 3560.94,3348.1L3560.94,603.705C3560.94,509.74 3484.77,433.566 3390.8,433.566L780.773,433.566C704.019,433.566 639.135,484.39 617.941,554.22Z" style="fill:currentColor;"/>
    <path d="M577.685,510.691L3574.52,510.691" style="fill:none;stroke:rgb(27,27,26);stroke-width:14.3px;"/>
    <path d="M577.685,510.691L724.837,401.456L3420.1,400.171L3500.08,422.503L3586.92,528.728L3600.2,640.992L3582.09,755.036L3571.47,760.313L3552.34,707.486L3536.13,669.916L3520.11,641.691L3497.6,610.097L3474.53,589.755L3449.54,565.408L3421.38,546.273L3388.58,531.207L3355.14,520.527L3322.91,512.518L3258.31,510.698L614.749,509.602L577.685,510.691Z" style="fill:currentColor;stroke:rgb(27,27,26);stroke-width:14.3px;"/>
    <path d="M3567.68,803.619C3567.68,803.653 3564.96,730.916 3538.39,672.481C3515.02,621.088 3468.97,582.787 3468.97,582.787C3469.64,582.787 3427.05,547.236 3380.22,529.401C3331.99,511.033 3279.48,510.365 3280.16,510.374C3440.03,512.543 3567.58,643.26 3567.68,803.619Z" style="fill:none;stroke:rgb(27,27,26);stroke-width:14.3px;"/>
</svg>
