<?xml version="1.0" encoding="UTF-8" standalone="no"?>
<!DOCTYPE svg PUBLIC "-//W3C//DTD SVG 1.1//EN" "http://www.w3.org/Graphics/SVG/1.1/DTD/svg11.dtd">
<svg width="100%" height="100%" viewBox="0 0 4000 4000" version="1.1" xmlns="http://www.w3.org/2000/svg" xmlns:xlink="http://www.w3.org/1999/xlink" xml:space="preserve" xmlns:serif="http://www.serif.com/" style="fill-rule:evenodd;clip-rule:evenodd;stroke-linejoin:round;stroke-miterlimit:2;color:#0094ff;">
    <g transform="matrix(1,0,0,1,9.13855,3.01388)">
        <g transform="matrix(1.32648,0,0,1.16144,-638.244,-490.045)">
            <path d="M3376.88,1661.58L3376.88,2621.1C3376.88,2780.17 3263.97,2909.11 3124.7,2909.11L839.341,2909.11C700.068,2909.11 587.164,2780.17 587.164,2621.1L587.164,1661.58C587.164,1502.51 700.068,1373.57 839.341,1373.57L3124.7,1373.57C3263.97,1373.57 3376.88,1502.51 3376.88,1661.58ZM2928.35,1861.04C2928.35,1899.13 2955.43,1930.07 2988.78,1930.07C3022.14,1930.07 3049.22,1899.13 3049.22,1861.04C3049.22,1822.94 3022.14,1792.01 2988.78,1792.01C2955.43,1792.01 2928.35,1822.94 2928.35,1861.04ZM3086.63,1903.76C3053.27,1903.76 3026.19,1934.69 3026.19,1972.79C3026.19,2010.88 3053.27,2041.81 3086.63,2041.81C3119.98,2041.81 3147.07,2010.88 3147.07,1972.79C3147.07,1934.69 3119.98,1903.76 3086.63,1903.76ZM3086.63,2183.19C3003.17,2183.19 2935.42,2260.57 2935.42,2355.88C2935.42,2451.19 3003.17,2528.58 3086.63,2528.58C3170.08,2528.58 3237.83,2451.19 3237.83,2355.88C3237.83,2260.57 3170.08,2183.19 3086.63,2183.19ZM820.603,2425.17L820.903,2466.99C821.178,2505.23 848.585,2536.02 882.066,2535.7C915.548,2535.39 942.507,2504.09 942.233,2465.85L941.94,2425.17L977.561,2425.17C1011.04,2425.17 1038.23,2394.12 1038.23,2355.88C1038.23,2317.64 1011.04,2286.59 977.561,2286.59L940.943,2286.59L940.643,2244.78C940.368,2206.53 912.962,2175.74 879.48,2176.06C845.998,2176.37 819.039,2207.67 819.314,2245.91L819.606,2286.59L783.985,2286.59C750.502,2286.59 723.318,2317.64 723.318,2355.88C723.318,2394.12 750.502,2425.17 783.985,2425.17L820.603,2425.17ZM3086.63,1680.27C3053.27,1680.27 3026.19,1711.2 3026.19,1749.29C3026.19,1787.39 3053.27,1818.32 3086.63,1818.32C3119.98,1818.32 3147.07,1787.39 3147.07,1749.29C3147.07,1711.2 3119.98,1680.27 3086.63,1680.27ZM3124.03,1861.04C3124.03,1899.13 3151.11,1930.07 3184.47,1930.07C3217.83,1930.07 3244.91,1899.13 3244.91,1861.04C3244.91,1822.94 3217.83,1792.01 3184.47,1792.01C3151.11,1792.01 3124.03,1822.94 3124.03,1861.04ZM883.199,1688.35C799.746,1688.35 731.992,1765.73 731.992,1861.04C731.992,1956.35 799.746,2033.73 883.199,2033.73C966.653,2033.73 1034.41,1956.35 1034.41,1861.04C1034.41,1765.73 966.653,1688.35 883.199,1688.35ZM2817.26,1459.15C2817.26,1449.59 2810.48,1441.85 2802.11,1441.85L1161.93,1441.85C1153.57,1441.85 1146.78,1449.59 1146.78,1459.15L1146.78,2823.53C1146.78,2833.09 1153.57,2840.84 1161.93,2840.84L2802.11,2840.84C2810.48,2840.84 2817.26,2833.09 2817.26,2823.53L2817.26,1459.15Z" style="fill:currentColor;"/>
        </g>
    </g>
</svg>
